{
  "accessors": [
    {
      "bufferView": 2,
      "componentType": 5126,
      "count": 1639,
      "max": [
        0.5466409921646118,
        1.3364299535751343,
        2.006540060043335
      ],
      "min": [
        -0.478738009929657,
        -1.4410899877548218,
        -0.3223249912261963
      ],
      "type": "VEC3"
    },
    {
      "bufferView": 2,
      "byteOffset": 19668,
      "componentType": 5126,
      "count": 1639,
      "max": [
        0.9995543360710144,
        0.9990019798278809,
        0.9993700981140137
      ],
      "min": [
        -0.9995543360710144,
        -0.9993700981140137,
        -0.999984622001648
      ],
      "type": "VEC3"
    },
    {
      "bufferView": 1,
      "componentType": 5126,
      "count": 1639,
      "max": [
        0.7477350234985352,
        0.992281973361969
      ],
      "min": [
        0.04148799926042557,
        0.2883490025997162
      ],
      "type": "VEC2"
    },
    {
      "bufferView": 0,
      "componentType": 5125,
      "count": 7068,
      "type": "SCALAR"
    },
    {
      "bufferView": 2,
      "byteOffset": 39336,
      "componentType": 5126,
      "count": 3508,
      "max": [
        0.5767970085144043,
        0.432981014251709,
        2.7815799713134766
      ],
      "min": [
        -0.5792999863624573,
        -0.6789699792861938,
        0.8534470200538635
      ],
      "type": "VEC3"
    },
    {
      "bufferView": 2,
      "byteOffset": 81432,
      "componentType": 5126,
      "count": 3508,
      "max": [
        0.9996862411499023,
        0.9959554672241211,
        0.9987581372261047
      ],
      "min": [
        -0.9998984336853027,
        -0.9999272227287292,
        -0.9996040463447571
      ],
      "type": "VEC3"
    },
    {
      "bufferView": 1,
      "byteOffset": 13112,
      "componentType": 5126,
      "count": 3508,
      "max": [
        0.7330080270767212,
        0.9873589873313904
      ],
      "min": [
        0.0011409999569877982,
        0.00380500010214746
      ],
      "type": "VEC2"
    },
    {
      "bufferView": 0,
      "byteOffset": 28272,
      "componentType": 5125,
      "count": 18717,
      "type": "SCALAR"
    }
  ],
  "asset": {
    "extras": {
      "author": "mylae (https://sketchfab.com/mylae)",
      "license": "CC-BY-4.0 (http://creativecommons.org/licenses/by/4.0/)",
      "source": "https://sketchfab.com/3d-models/hafsid-horse-general-machiavello-mod-8530cf6caf234e61a71f85dec5d3a467",
      "title": "Hafsid Horse General (Machiavello Mod)"
    },
    "generator": "Sketchfab-12.65.0",
    "version": "2.0"
  },
  "bufferViews": [
    {
      "buffer": 0,
      "byteLength": 103140,
      "name": "floatBufferViews",
      "target": 34963
    },
    {
      "buffer": 0,
      "byteLength": 41176,
      "byteOffset": 103140,
      "byteStride": 8,
      "name": "floatBufferViews",
      "target": 34962
    },
    {
      "buffer": 0,
      "byteLength": 123528,
      "byteOffset": 144316,
      "byteStride": 12,
      "name": "floatBufferViews",
      "target": 34962
    }
  ],
  "buffers": [
    {
      "byteLength": 267844,
      "uri": "scene.bin"
    }
  ],
  "images": [
    {
      "uri": "textures/Figure_baseColor.png"
    },
    {
      "uri": "textures/Material01_baseColor.png"
    }
  ],
  "materials": [
    {
      "doubleSided": true,
      "name": "Figure",
      "pbrMetallicRoughness": {
        "baseColorTexture": {
          "index": 0
        },
        "metallicFactor": 0.0
      }
    },
    {
      "doubleSided": true,
      "name": "Material01",
      "pbrMetallicRoughness": {
        "baseColorTexture": {
          "index": 1
        },
        "metallicFactor": 0.0
      }
    }
  ],
  "meshes": [
    {
      "name": "Object_0",
      "primitives": [
        {
          "attributes": {
            "NORMAL": 1,
            "POSITION": 0,
            "TEXCOORD_0": 2
          },
          "indices": 3,
          "material": 0,
          "mode": 4
        }
      ]
    },
    {
      "name": "Object_1",
      "primitives": [
        {
          "attributes": {
            "NORMAL": 5,
            "POSITION": 4,
            "TEXCOORD_0": 6
          },
          "indices": 7,
          "material": 1,
          "mode": 4
        }
      ]
    }
  ],
  "nodes": [
    {
      "children": [
        1
      ],
      "matrix": [
        1.0,
        0.0,
        0.0,
        0.0,
        0.0,
        2.220446049250313e-16,
        -1.0,
        0.0,
        0.0,
        1.0,
        2.220446049250313e-16,
        0.0,
        0.0,
        0.0,
        0.0,
        1.0
      ],
      "name": "Sketchfab_model"
    },
    {
      "children": [
        2,
        3
      ],
      "name": "mt.obj.cleaner.materialmerger.gles"
    },
    {
      "mesh": 0,
      "name": "Object_2"
    },
    {
      "mesh": 1,
      "name": "Object_3"
    }
  ],
  "samplers": [
    {
      "magFilter": 9729,
      "minFilter": 9987,
      "wrapS": 10497,
      "wrapT": 10497
    }
  ],
  "scene": 0,
  "scenes": [
    {
      "name": "Sketchfab_Scene",
      "nodes": [
        0
      ]
    }
  ],
  "textures": [
    {
      "sampler": 0,
      "source": 0
    },
    {
      "sampler": 0,
      "source": 1
    }
  ]
}
